
        <svg xmlns="http://www.w3.org/2000/svg" xmlns:xlink="http://www.w3.org/1999/xlink" version="1.1" width="3162.208309618669" 
        height="941.661923733637" viewBox="0 0 3162.208309618669 941.661923733637">
			<rect fill="#000000" width="3162.208309618669" height="941.661923733637"/>
			<g transform="scale(8.11041548093341) translate(10, 10)">
				<defs id="SvgjsDefs1302"></defs><g id="SvgjsG1303" featureKey="hmhgWD-0" transform="matrix(0.3266785733669152,0,0,0.3266785733669152,-2.9491513106402585,1.0508493124496718)" fill="#ffffff"><g xmlns="http://www.w3.org/2000/svg"><path d="M209.1,9.1c-10.2,0.8-19.7,10.2-20.7,20.4c-0.2,1.5-0.2,3,0,4.4c0.7,7.9-2.3,15.7-8,21.3l-1.3,1.2   c-2.7,2.6-8.5,4.3-14.1,5.3c-9.9,1.7-20.1,1.7-30,0c-5.6-1-11.4-2.6-14.1-5.3l-1.2-1.2c-5.7-5.5-8.7-13.4-8-21.3   c0.1-1.5,0.1-2.9,0-4.4c-1-10.2-10.6-19.6-20.8-20.4C76.9,8,65.3,19.6,66.4,33.6c0.9,11,9.7,19.9,20.7,20.8c1.5,0.1,2.9,0.1,4.3,0   c8.1-0.8,16.2,1.6,22,7.4l1.1,1.1c6.3,6.1,9,15,7.6,23.7c-0.4,2.1-0.5,4.3-0.3,6.5c1,13.8,12.3,25.1,26.1,26   c16.5,1.1,30.2-11.9,30.2-28.1c0-1.6-0.2-3.3-0.5-4.8c-1.5-8.6,1.5-17.3,7.8-23.4l1-1c5.8-5.6,13.9-8.2,22-7.4   c1.4,0.2,2.8,0.2,4.3,0c11-0.9,19.8-9.8,20.7-20.8C234.7,19.6,223.1,8,209.1,9.1z"></path><path d="M9.1,90.9c0.8,10.2,10.2,19.7,20.4,20.7c1.5,0.2,3,0.2,4.4,0c7.9-0.7,15.7,2.3,21.3,8l1.2,1.3c2.6,2.7,4.3,8.5,5.3,14.1   c1.7,9.9,1.7,20.1,0,30c-1,5.6-2.6,11.4-5.3,14.1l-1.2,1.2c-5.5,5.7-13.4,8.7-21.3,8c-1.5-0.1-2.9-0.1-4.4,0   c-10.2,1-19.6,10.6-20.4,20.8c-1.1,14,10.5,25.7,24.6,24.5c11-0.9,19.9-9.7,20.8-20.7c0.1-1.5,0.1-2.9,0-4.3   c-0.8-8.1,1.6-16.2,7.4-22l1.1-1.1c6.1-6.3,15-9,23.7-7.6c2.1,0.4,4.3,0.5,6.5,0.3c13.8-1,25.1-12.3,26-26.1   c1.1-16.5-11.9-30.2-28.1-30.2c-1.6,0-3.3,0.2-4.8,0.5c-8.6,1.5-17.3-1.5-23.4-7.8l-1-1c-5.6-5.8-8.2-13.9-7.4-22   c0.2-1.4,0.2-2.8,0-4.3c-1-11-9.9-19.9-20.9-20.7C19.6,65.3,8,76.9,9.1,90.9z"></path><path d="M90.9,290.9c10.2-0.8,19.7-10.2,20.7-20.4c0.2-1.5,0.2-3,0-4.4c-0.7-7.9,2.3-15.7,8-21.3l1.2-1.2c2.7-2.6,8.5-4.3,14.1-5.3   c9.9-1.7,20.1-1.7,30,0c5.6,1,11.4,2.6,14.1,5.3l1.2,1.2c5.7,5.5,8.7,13.4,8,21.3c-0.1,1.5-0.1,2.9,0,4.4   c1,10.2,10.6,19.6,20.7,20.4c14,1.1,25.7-10.5,24.5-24.6c-0.9-11-9.7-19.9-20.7-20.8c-1.5-0.1-2.9-0.1-4.3,0   c-8.1,0.8-16.2-1.6-22-7.4l-1.1-1.1c-6.3-6.1-9-15-7.6-23.7c0.4-2.1,0.5-4.3,0.3-6.5c-1-13.8-12.3-25.1-26.1-26   c-16.5-1.1-30.2,11.9-30.2,28.1c0,1.6,0.2,3.3,0.5,4.8c1.5,8.6-1.5,17.3-7.8,23.4l-1,1c-5.8,5.6-13.9,8.2-22,7.4   c-1.4-0.2-2.8-0.2-4.3,0c-11,0.9-19.8,9.8-20.7,20.8C65.3,280.4,76.9,292,90.9,290.9z"></path><path d="M290.9,209.1c-0.8-10.2-10.2-19.7-20.4-20.7c-1.5-0.2-3-0.2-4.4,0c-7.9,0.7-15.7-2.3-21.3-8l-1.2-1.3   c-2.6-2.7-4.3-8.5-5.3-14.1c-1.7-9.9-1.7-20.1,0-30c1-5.6,2.6-11.4,5.3-14.1l1.2-1.2c5.5-5.7,13.4-8.7,21.3-8   c1.5,0.1,2.9,0.1,4.4,0c10.2-1,19.6-10.6,20.4-20.7c1.1-14-10.5-25.7-24.6-24.5c-11,0.9-19.9,9.7-20.8,20.7c-0.1,1.5-0.1,2.9,0,4.3   c0.8,8.1-1.6,16.2-7.4,22l-1.1,1.1c-6.1,6.3-15,9-23.7,7.6c-2.1-0.4-4.3-0.5-6.5-0.3c-13.8,1-25.1,12.3-26,26.1   c-1.1,16.5,11.9,30.2,28.1,30.2c1.6,0,3.3-0.2,4.8-0.5c8.6-1.5,17.3,1.5,23.4,7.8l1,1c5.6,5.8,8.2,13.9,7.4,22   c-0.2,1.4-0.2,2.8,0,4.3c0.9,11,9.8,19.8,20.8,20.7C280.4,234.7,292,223.1,290.9,209.1z"></path><path d="M89.1,107.2c10,0,18.2-8.1,18.2-18.2c0-10-8.1-18.2-18.2-18.2c-10,0-18.2,8.1-18.2,18.2C70.9,99.1,79,107.2,89.1,107.2z"></path><path d="M89.1,229.1c10,0,18.2-8.1,18.2-18.2c0-10-8.1-18.2-18.2-18.2c-10,0-18.2,8.1-18.2,18.2C70.9,221,79,229.1,89.1,229.1z"></path><path d="M210.9,229.1c10,0,18.2-8.1,18.2-18.2c0-10-8.1-18.2-18.2-18.2c-10,0-18.2,8.1-18.2,18.2   C192.8,221,200.9,229.1,210.9,229.1z"></path><path d="M210.9,107.2c10,0,18.2-8.1,18.2-18.2c0-10-8.1-18.2-18.2-18.2c-10,0-18.2,8.1-18.2,18.2   C192.8,99.1,200.9,107.2,210.9,107.2z"></path><path d="M150,168.2c10,0,18.2-8.1,18.2-18.2s-8.1-18.2-18.2-18.2s-18.2,8.1-18.2,18.2S140,168.2,150,168.2z"></path></g></g><g id="SvgjsG1304" featureKey="1RRcwp-0" transform="matrix(2.493182035737669,0,0,2.493182035737669,110.05531867787604,17.550711019032015)" fill="#ffffff"><path d="M9 7.859999999999999 q-0.26 -0.04 -0.43 -0.24 t-0.17 -0.46 l0 -1.46 q0 -0.34 0.24 -0.54 t0.56 -0.16 q1.72 0.28 3.06 1.22 q1.74 1.26 2.46 3.34 q0.12 0.34 -0.08 0.64 t-0.58 0.3 l-1.6 0 q-0.22 0 -0.4 -0.11 t-0.26 -0.31 q-0.44 -1.04 -1.34 -1.66 q-0.7 -0.44 -1.46 -0.56 z M14.06 14.5 q0.38 0 0.58 0.3 t0.08 0.64 q-0.72 2.08 -2.46 3.34 q-1.34 0.94 -3.06 1.22 l-0.1 0 q-0.28 0 -0.46 -0.18 q-0.24 -0.18 -0.24 -0.52 l0 -1.46 q0 -0.26 0.16 -0.46 t0.42 -0.24 q0.84 -0.12 1.48 -0.56 q0.9 -0.62 1.34 -1.66 q0.08 -0.2 0.26 -0.31 t0.4 -0.11 l1.6 0 z M6.9 5.24 q0.26 0.2 0.26 0.54 l0 1.56 q0 0.22 -0.15 0.41 t-0.37 0.27 q-0.28 0.06 -0.44 0.14 q-0.8 0.36 -1.36 0.98 q-1.14 1.28 -1.14 3.35 t1.14 3.37 q0.7 0.8 1.8 1.12 q0.22 0.06 0.37 0.25 t0.15 0.41 l0 1.58 q0 0.34 -0.26 0.54 q-0.18 0.16 -0.46 0.16 l-0.14 0 q-2.14 -0.46 -3.62 -2.08 q-1.9 -2.14 -1.9 -5.34 t1.9 -5.34 q1.48 -1.64 3.62 -2.06 q0.32 -0.08 0.6 0.14 z M26.439999999999998 14.02 l2.98 4.58 q0.1 0.16 0.11 0.36 t-0.08 0.36 t-0.26 0.26 t-0.35 0.1 l-1.8 0 q-0.18 0 -0.34 -0.09 t-0.24 -0.23 l-3 -4.78 l-3.54 0 l0 4.4 q0 0.28 -0.21 0.49 t-0.49 0.21 l-1.5 0 q-0.28 0 -0.49 -0.21 t-0.21 -0.49 l0 -13.28 q0 -0.28 0.21 -0.49 t0.49 -0.21 l6.36 0 q2.3 0 3.73 1.31 t1.43 3.55 q0 1.44 -0.63 2.47 t-1.85 1.55 q-0.08 0.04 -0.26 0.12 z M19.92 7.82 l0 3.94 l3.9 0 q1.72 0 2.34 -0.98 q0.2 -0.36 0.2 -0.92 q0 -0.94 -0.62 -1.48 q-0.68 -0.56 -1.84 -0.56 l-3.98 0 z M38.44 5 q3.28 0 5.38 2.2 q2.06 2.16 2.06 5.3 t-2.06 5.3 q-2.1 2.2 -5.38 2.2 t-5.38 -2.2 q-2.06 -2.16 -2.06 -5.3 t2.06 -5.3 q2.1 -2.2 5.38 -2.2 z M38.44 17.14 q2.06 0 3.32 -1.32 q1.22 -1.28 1.22 -3.31 t-1.24 -3.34 t-3.3 -1.31 t-3.3 1.31 t-1.24 3.34 t1.22 3.31 q1.26 1.32 3.32 1.32 z M60.44 5 q0.28 0 0.49 0.21 t0.21 0.49 l0 13.28 q0 0.28 -0.21 0.49 t-0.49 0.21 l-1.76 0 q-0.34 0 -0.56 -0.28 l-6.94 -9.5 l0 9.08 q0 0.28 -0.21 0.49 t-0.49 0.21 l-1.5 0 q-0.28 0 -0.49 -0.21 t-0.21 -0.49 l0 -13.28 q0 -0.28 0.21 -0.49 t0.49 -0.21 l1.74 0 q0.16 0 0.32 0.07 t0.24 0.21 l6.96 9.46 l0 -9.04 q0 -0.28 0.2 -0.49 t0.48 -0.21 l1.52 0 z M73.82 16.84 q0.3 0 0.5 0.21 t0.2 0.49 l0 1.44 q0 0.28 -0.2 0.49 t-0.5 0.21 l-8.74 0 q-0.28 0 -0.49 -0.21 t-0.21 -0.49 l0 -13.28 q0 -0.28 0.21 -0.49 t0.49 -0.21 l1.5 0 q0.28 0 0.49 0.21 t0.21 0.49 l0 11.14 l6.54 0 z M88.30000000000001 5 q0.28 0 0.49 0.21 t0.21 0.49 l0 7.56 q0 2.92 -1.78 4.75 t-4.57 1.83 t-4.57 -1.83 t-1.78 -4.75 l0 -7.56 q0 -0.28 0.21 -0.49 t0.49 -0.21 l1.5 0 q0.28 0 0.49 0.21 t0.21 0.49 l0 7.6 q0 1.86 1.06 2.84 q0.9 0.84 2.38 0.84 t2.4 -0.84 q1.06 -1 1.06 -2.84 l0 -7.6 q0 -0.28 0.2 -0.49 t0.48 -0.21 l1.52 0 z M99.10000000000001 12.120000000000001 l4.92 6.38 q0.2 0.2 0.2 0.48 t-0.21 0.49 t-0.49 0.21 l-1.9 0 q-0.16 0 -0.32 -0.07 t-0.24 -0.21 l-3.76 -4.96 l-3.74 4.96 q-0.22 0.28 -0.56 0.28 l-1.9 0 q-0.2 0 -0.37 -0.11 t-0.26 -0.28 t-0.07 -0.38 t0.14 -0.35 l4.98 -6.44 l-4.62 -6 q-0.12 -0.14 -0.14 -0.35 t0.07 -0.38 t0.26 -0.28 t0.37 -0.11 l1.9 0 q0.34 0 0.56 0.28 l3.38 4.48 l3.4 -4.48 q0.08 -0.14 0.24 -0.21 t0.32 -0.07 l1.9 0 q0.2 0 0.36 0.11 t0.26 0.28 t0.08 0.38 t-0.16 0.35 z"></path></g>
			</g>
		</svg>
	